<svg width="18" height="18" viewBox="0 0 18 18" fill="none" xmlns="http://www.w3.org/2000/svg">
<path d="M6.96094 9.87891L6.08203 11.5664H14.9766C15.2344 11.5664 15.4453 11.6484 15.6094 11.8125C15.7734 11.9766 15.8555 12.1875 15.8555 12.4453C15.8555 12.6797 15.7734 12.8789 15.6094 13.043C15.4453 13.207 15.2461 13.2891 15.0117 13.2891H4.71094C4.40625 13.2891 4.16016 13.1602 3.97266 12.9023C3.83203 12.5977 3.82031 12.3164 3.9375 12.0586L5.44922 9L3.09375 4.25391L3.05859 4.21875L2.46094 3.02344H1.26562C1.03125 3.02344 0.832031 2.94141 0.667969 2.77734C0.503906 2.61328 0.421875 2.40234 0.421875 2.14453C0.421875 1.91016 0.503906 1.71094 0.667969 1.54688C0.832031 1.38281 1.03125 1.30078 1.26562 1.30078H2.98828C3.36328 1.30078 3.62109 1.45312 3.76172 1.75781L4.39453 3.02344H16.6992C17.0742 3.02344 17.332 3.17578 17.4727 3.48047C17.6367 3.76172 17.625 4.05469 17.4375 4.35938L13.9922 9.49219C13.8516 9.75 13.6172 9.87891 13.2891 9.87891H6.96094ZM15.1172 4.71094H5.23828L6.96094 8.15625H12.832L15.1172 4.71094ZM5.55469 14.5195C6.02344 14.5195 6.42188 14.6953 6.75 15.0469C7.10156 15.375 7.27734 15.7734 7.27734 16.2422C7.27734 16.7109 7.10156 17.1094 6.75 17.4375C6.42188 17.7656 6.02344 17.9297 5.55469 17.9297C5.08594 17.9297 4.67578 17.7656 4.32422 17.4375C3.99609 17.1094 3.83203 16.7109 3.83203 16.2422C3.83203 15.7734 3.99609 15.375 4.32422 15.0469C4.67578 14.6953 5.08594 14.5195 5.55469 14.5195ZM14.1328 14.5195C14.6016 14.5195 15 14.6953 15.3281 15.0469C15.6562 15.375 15.8203 15.7734 15.8203 16.2422C15.8203 16.7109 15.6562 17.1094 15.3281 17.4375C15 17.7656 14.6016 17.9297 14.1328 17.9297C13.6641 17.9297 13.2539 17.7656 12.9023 17.4375C12.5742 17.1094 12.4102 16.7109 12.4102 16.2422C12.4102 15.7734 12.5742 15.375 12.9023 15.0469C13.2539 14.6953 13.6641 14.5195 14.1328 14.5195Z" fill="#354A5F"/>
</svg>
