<svg viewBox="0 0 32 32" fill="currentcolor" xmlns="http://www.w3.org/2000/svg">
    <path d="M16 0.285706C18.2083 0.285706 20.2917 0.702373 22.2499 1.53571C24.2083 2.36903 25.8958 3.51487 27.3125 4.97321C28.7709 6.38987 29.9166 8.07737 30.7501 10.0357C31.5834 11.994 32 14.0774 32 16.2857C32 18.494 31.5834 20.5774 30.7501 22.5356C29.9166 24.4524 28.7709 26.1399 27.3125 27.5982C25.8958 29.0566 24.2083 30.2023 22.2499 31.0358C20.2917 31.8691 18.2083 32.2857 16 32.2857C13.7917 32.2857 11.7083 31.8691 9.75 31.0358C7.83333 30.2023 6.14584 29.0566 4.6875 27.5982C3.22917 26.1399 2.08333 24.4524 1.25 22.5356C0.416667 20.5774 0 18.494 0 16.2857C0 14.0774 0.416667 11.994 1.25 10.0357C2.08333 8.07737 3.22917 6.38987 4.6875 4.97321C6.14584 3.51487 7.83333 2.36903 9.75 1.53571C11.7083 0.702373 13.7917 0.285706 16 0.285706ZM8.87501 10.2857C9.79166 6.99404 11.3125 4.4107 13.4375 2.53571C11.1875 2.95238 9.1875 3.8482 7.4375 5.22321C5.6875 6.5982 4.33333 8.28571 3.37501 10.2857H8.87501ZM18.5626 2.53571C20.6875 4.28571 22.2291 6.86903 23.1875 10.2857H28.625C27.6667 8.28571 26.3125 6.5982 24.5626 5.22321C22.8125 3.8482 20.8125 2.95238 18.5626 2.53571ZM21.125 10.2857C20.5834 8.61903 19.875 7.18155 19 5.97321C18.125 4.72321 17.125 3.78571 16 3.16071C14.9167 3.78571 13.9167 4.72321 13 5.97321C12.125 7.18155 11.4375 8.61903 10.9375 10.2857H21.125ZM10 16.2857C10 16.994 10.0417 17.6815 10.125 18.3483C10.2083 18.9732 10.3125 19.619 10.4375 20.2857H21.625C21.875 18.9524 22 17.619 22 16.2857C22 14.869 21.875 13.5357 21.625 12.2857H10.4375C10.3125 12.9107 10.2083 13.5565 10.125 14.2232C10.0417 14.8899 10 15.5774 10 16.2857ZM2 16.2857C2 18.1607 2.20834 19.494 2.62499 20.2857H8.37501C8.12499 18.9524 8 17.619 8 16.2857C8 15.5774 8.04167 14.8899 8.12499 14.2232C8.20834 13.5565 8.29166 12.9107 8.37501 12.2857H2.62499C2.20834 13.0774 2 14.4107 2 16.2857ZM29.4374 20.2857C29.8125 19.0358 30 17.7023 30 16.2857C30 14.869 29.8125 13.5357 29.4374 12.2857H23.625C23.875 13.5357 24 14.869 24 16.2857C24 17.619 23.875 18.9524 23.625 20.2857H29.4374ZM10.9375 22.2857C11.4375 23.9107 12.125 25.3483 13 26.5982C13.9167 27.8483 14.9167 28.7857 16 29.4107C17.125 28.7857 18.125 27.8483 19 26.5982C19.875 25.3483 20.5834 23.9107 21.125 22.2857H10.9375ZM13.4375 30.0358C11.3125 28.1607 9.77083 25.5774 8.8125 22.2857H3.37501C4.33333 24.2857 5.6875 25.9732 7.4375 27.3483C9.1875 28.6815 11.1875 29.5774 13.4375 30.0358ZM28.625 22.2857H23.1875C22.2291 25.619 20.7083 28.2023 18.625 30.0358C20.875 29.5774 22.8542 28.6815 24.5626 27.3483C26.3125 25.9732 27.6667 24.2857 28.625 22.2857Z"></path>
    </svg>