<svg width="47" height="22" viewBox="0 0 47 22" fill="none" xmlns="http://www.w3.org/2000/svg">
<path fill-rule="evenodd" clip-rule="evenodd" d="M38.2237 10.3739H36.8406V5.31411H38.2237C40.0685 5.31411 41.5397 5.92676 41.5397 7.81039C41.5397 9.75993 40.0685 10.3739 38.2237 10.3739ZM23.3434 13.9817C22.6107 13.9817 21.9237 13.8537 21.3315 13.6297L23.3215 7.35063H23.3593L25.3148 13.6475C24.7271 13.8562 24.0562 13.9817 23.3434 13.9817ZM37.855 1.2069L31.5762 1.20307V16.1326L26.091 1.20307H20.6524L15.9689 13.6885C15.4703 10.5402 12.2137 9.45305 9.6518 8.63801C7.9599 8.09483 6.16489 7.29593 6.18157 6.41278C6.19552 5.68772 7.14431 5.01435 9.0241 5.11555C10.288 5.18256 11.4022 5.28485 13.6198 6.35398L15.8013 2.55555C13.7768 1.52553 10.9799 0.874593 8.68824 0.872131H8.67484C6.00216 0.872131 3.77501 1.73805 2.39436 3.16519C1.43217 4.16184 0.913608 5.42762 0.892002 6.82769C0.856993 8.75425 1.56345 10.1215 3.04804 11.2111C4.30178 12.1307 5.90479 12.7261 7.31771 13.1642C9.0613 13.7044 10.4838 14.1737 10.4674 15.1753C10.4545 15.5396 10.3161 15.8796 10.0541 16.1556C9.6198 16.6038 8.95217 16.7723 8.02992 16.7895C6.25186 16.827 4.93221 16.5483 2.83115 15.3069L0.892002 19.1589C2.98732 20.3508 5.46855 21.0496 8.0001 21.0496L8.32612 21.0458C10.5297 21.0064 12.3083 20.3782 13.7289 19.2344C13.8104 19.1698 13.8837 19.1034 13.9592 19.0366L13.3291 20.7187H19.033L19.9903 17.8072C20.9924 18.1497 22.1323 18.3389 23.3434 18.3389C24.5217 18.3389 25.6318 18.1579 26.6159 17.836L27.5384 20.7187H36.8406V14.6909H38.8689C43.7734 14.6909 46.6739 12.193 46.6739 8.00813C46.6739 3.34625 43.8557 1.2069 37.855 1.2069Z" fill="white"/>
</svg>
