<svg width="18" height="18" viewBox="0 0 18 18" fill="none" xmlns="http://www.w3.org/2000/svg">
<path d="M17.1914 15.3281C17.3555 15.4922 17.4375 15.7031 17.4375 15.9609C17.4375 16.2188 17.3438 16.4414 17.1562 16.6289C16.9922 16.793 16.7812 16.875 16.5234 16.875C16.2656 16.875 16.0547 16.793 15.8906 16.6289L12.375 13.1133C11.7656 13.582 11.0742 13.957 10.3008 14.2383C9.55078 14.4961 8.74219 14.625 7.875 14.625C6.84375 14.625 5.88281 14.4375 4.99219 14.0625C4.10156 13.6875 3.32812 13.1719 2.67188 12.5156C2.01562 11.8594 1.5 11.0859 1.125 10.1953C0.75 9.30469 0.5625 8.34375 0.5625 7.3125C0.5625 6.28125 0.75 5.32031 1.125 4.42969C1.5 3.53906 2.01562 2.76562 2.67188 2.10938C3.32812 1.45312 4.10156 0.9375 4.99219 0.5625C5.88281 0.1875 6.84375 0 7.875 0C8.90625 0 9.86719 0.1875 10.7578 0.5625C11.6484 0.9375 12.4219 1.45312 13.0781 2.10938C13.7344 2.76562 14.25 3.53906 14.625 4.42969C15 5.32031 15.1875 6.28125 15.1875 7.3125C15.1875 8.17969 15.0469 9 14.7656 9.77344C14.5078 10.5234 14.1445 11.2031 13.6758 11.8125L17.1914 15.3281ZM7.875 12.832C8.64844 12.832 9.36328 12.6914 10.0195 12.4102C10.6992 12.1289 11.2852 11.7422 11.7773 11.25C12.293 10.7344 12.6914 10.1484 12.9727 9.49219C13.2539 8.8125 13.3945 8.08594 13.3945 7.3125C13.3945 6.53906 13.2539 5.82422 12.9727 5.16797C12.6914 4.48828 12.293 3.90234 11.7773 3.41016C11.2852 2.89453 10.6992 2.49609 10.0195 2.21484C9.36328 1.93359 8.64844 1.79297 7.875 1.79297C7.10156 1.79297 6.375 1.93359 5.69531 2.21484C5.03906 2.49609 4.45312 2.89453 3.9375 3.41016C3.44531 3.90234 3.05859 4.48828 2.77734 5.16797C2.49609 5.82422 2.35547 6.53906 2.35547 7.3125C2.35547 8.08594 2.49609 8.8125 2.77734 9.49219C3.05859 10.1484 3.44531 10.7344 3.9375 11.25C4.45312 11.7422 5.03906 12.1289 5.69531 12.4102C6.375 12.6914 7.10156 12.832 7.875 12.832Z" fill="#354A5F"/>
</svg>
