<svg id="Pictograms" xmlns="http://www.w3.org/2000/svg" viewBox="0 0 240 240"><defs><style>.cls-1{fill:#e35500;}.cls-2{opacity:0.7;}.cls-3,.cls-4{fill:#f0ab00;}.cls-4{opacity:0.4;}.cls-5{fill:#fff;}</style></defs><title>281519-pictogram-neg</title><path class="cls-1" d="M143.77,42.51a68.18,68.18,0,0,0-7.26-3.64L135.33,74a53.13,53.13,0,0,1,28.8,44.19h11.65a68.1,68.1,0,0,0-32-75.69Z"/><path class="cls-1" d="M111.19,33.39v0h-1.52l-28.79.08a4.8,4.8,0,0,0-.76-.08A29.41,29.41,0,0,1,75.59,33a29.48,29.48,0,0,1-17-9A29.52,29.52,0,0,0,41.5,50.77h0A29.54,29.54,0,0,0,71,80.32,39.21,39.21,0,0,0,75.59,80c8.53-1,15.85-4.87,20.32-11.85h15.28a53.12,53.12,0,0,1,12.31,1.44V34.78A68.15,68.15,0,0,0,111.19,33.39Z"/><g class="cls-2"><path class="cls-3" d="M135.5,38.44l.5,35.91a53.1,53.1,0,0,1,7.77,5V42.51A68.16,68.16,0,0,0,135.5,38.44Z"/><path class="cls-3" d="M111.19,33.39v0h-1.52V68.2h1.52A53.07,53.07,0,0,1,124,69.75l-.5-35A68.15,68.15,0,0,0,111.19,33.39Z"/></g><path class="cls-3" d="M143.77,42.51V79.39a52.94,52.94,0,0,1,20.36,38.81h11.65a68.1,68.1,0,0,0-32-75.69Z"/><path class="cls-4" d="M80.93,33.41a4.72,4.72,0,0,0-.76-.08,29.43,29.43,0,0,1-4.54-.4L75.56,80c8.53-1,15.86-4.85,20.34-11.82l13.77,0,.05-34.85Z"/><path class="cls-5" d="M71.86,122.5h-4a7.75,7.75,0,1,1,15.49,0h-4a3.75,3.75,0,1,0-7.49,0Zm49.94-88V26h16V39.46h0V75.36h0v27.5a22,22,0,0,1-6,42.27V155.5c0,6.89-6.28,12.5-14,12.5H68.09v8.5c0,7.35,3.82,10.49,12.77,10.49h15v14.55l56-11.67V142.33l.67-.6a58.08,58.08,0,0,0,15.86-23.54h4.24a62.09,62.09,0,0,1-16.76,25.91v62l-64,12.8V191h-11c-11.13,0-16.77-4.87-16.77-14.49V168H55.53a8,8,0,1,1,0-4h8.56V148.08H51.86V98.5A61.66,61.66,0,0,1,56,76.21,29.38,29.38,0,0,0,59.6,78,57.7,57.7,0,0,0,55.86,98.5v45.58H68.09V164H117.8c5.51,0,10-3.81,10-8.5V145.17a22,22,0,0,1-6-42.51V69.28m4,32.3a21.82,21.82,0,0,1,8,.09V30h-8Zm3.75,39.67a18,18,0,1,0-18-18A18,18,0,0,0,129.55,141.25ZM51.8,166a4,4,0,1,0-4,4A4,4,0,0,0,51.8,166Zm100.06,28-56,11.67v8.43l56-11.2Z"/></svg>