<svg width="32" height="32" viewBox="0 0 32 32" fill="none" xmlns="http://www.w3.org/2000/svg">
<path d="M24.3125 14.75C24.6875 15.0833 24.875 15.5 24.875 16C24.875 16.4583 24.6875 16.875 24.3125 17.25C23.9792 17.5833 23.5625 17.75 23.0625 17.75C22.6042 17.75 22.1875 17.5833 21.8125 17.25L17.75 13.125V30.1875C17.75 31.3542 17.1667 31.9375 16 31.9375C15.4583 31.9375 15.0208 31.7708 14.6875 31.4375C14.3542 31.1458 14.1875 30.7292 14.1875 30.1875V13.125L10.125 17.25C9.79167 17.5833 9.375 17.75 8.875 17.75C8.41667 17.75 8 17.5833 7.625 17.25C7.29167 16.875 7.125 16.4583 7.125 16C7.125 15.5 7.29167 15.0833 7.625 14.75L14.5625 7.8125C14.7708 7.60417 14.9583 7.4375 15.125 7.3125C15.3333 7.1875 15.625 7.125 16 7.125C16.3333 7.125 16.6042 7.1875 16.8125 7.3125C17.0208 7.4375 17.2292 7.60417 17.4375 7.8125L24.3125 14.75ZM30.1875 0C30.7292 0 31.1458 0.166667 31.4375 0.5C31.7708 0.833333 31.9375 1.27083 31.9375 1.8125C31.9375 2.97917 31.3542 3.5625 30.1875 3.5625H1.8125C1.27083 3.5625 0.833333 3.41667 0.5 3.125C0.166667 2.79167 0 2.35417 0 1.8125C0 1.27083 0.166667 0.833333 0.5 0.5C0.833333 0.166667 1.27083 0 1.8125 0H30.1875Z" fill="#354A5F"/>
</svg>
