<svg width="18" height="18" viewBox="0 0 18 18" fill="none" xmlns="http://www.w3.org/2000/svg">
<path d="M17.1562 14.4492C17.3906 14.7539 17.5078 15.0234 17.5078 15.2578C17.5078 15.375 17.4961 15.457 17.4727 15.5039C17.3086 15.8555 17.0039 16.0312 16.5586 16.0312H11.7773C11.5898 16.5938 11.25 17.0625 10.7578 17.4375C10.2891 17.8125 9.72656 18 9.07031 18C8.41406 18 7.83984 17.8125 7.34766 17.4375C6.87891 17.0625 6.55078 16.5938 6.36328 16.0312H1.58203C1.20703 16.0312 0.925781 15.8672 0.738281 15.5391C0.667969 15.3516 0.632812 15.1992 0.632812 15.082C0.632812 14.8477 0.703125 14.6602 0.84375 14.5195C0.914062 14.4492 1.01953 14.3086 1.16016 14.0977C1.32422 13.8867 1.42969 13.7461 1.47656 13.6758C1.80469 13.207 2.05078 12.7148 2.21484 12.1992C2.40234 11.6836 2.49609 11.1211 2.49609 10.5117V8.64844C2.49609 7.89844 2.57812 7.08984 2.74219 6.22266C2.90625 5.35547 3.22266 4.55859 3.69141 3.83203C4.18359 3.05859 4.86328 2.42578 5.73047 1.93359C6.62109 1.41797 7.73438 1.16016 9.07031 1.16016C10.4062 1.16016 11.5078 1.40625 12.375 1.89844C13.2422 2.39062 13.9219 3.01172 14.4141 3.76172C14.9062 4.51172 15.2344 5.33203 15.3984 6.22266C15.5625 7.08984 15.6445 7.89844 15.6445 8.64844V10.5117C15.6445 11.1211 15.7148 11.6836 15.8555 12.1992C16.0195 12.6914 16.2305 13.1016 16.4883 13.4297C16.582 13.6172 16.6875 13.8047 16.8047 13.9922C16.9219 14.1797 17.0391 14.332 17.1562 14.4492ZM14.6953 14.2734C14.4609 13.8047 14.2266 13.2656 13.9922 12.6562C13.7812 12.0234 13.6758 11.3086 13.6758 10.5117V8.64844C13.6758 7.99219 13.6055 7.32422 13.4648 6.64453C13.3477 5.94141 13.1016 5.33203 12.7266 4.81641C12.3984 4.27734 11.9531 3.84375 11.3906 3.51562C10.8281 3.1875 10.043 3.02344 9.03516 3.02344C8.00391 3.02344 7.19531 3.1875 6.60938 3.51562C6.02344 3.84375 5.58984 4.27734 5.30859 4.81641C4.98047 5.33203 4.74609 5.94141 4.60547 6.64453C4.46484 7.32422 4.39453 7.99219 4.39453 8.64844V10.5117C4.39453 11.3086 4.28906 12.0234 4.07812 12.6562C3.86719 13.2656 3.62109 13.8047 3.33984 14.2734H14.6953Z" fill="#354A5F"/>
</svg>
