<svg viewBox="-4 -4 40 40" fill="currentcolor" xmlns="http://www.w3.org/2000/svg">
    <path d="M0.486071 2.6225L2.4975 0.519643C2.80226 0.214881 3.16797 0.0625 3.59464 0.0625C3.96036 0.0625 4.2956 0.214881 4.60036 0.519643L15.9375 11.9482L27.3661 0.519643C27.6708 0.214881 28.0061 0.0625 28.3718 0.0625C28.7985 0.0625 29.1642 0.214881 29.4689 0.519643L31.4804 2.6225C31.8461 2.92726 32.0289 3.2625 32.0289 3.62821C32.0289 3.99393 31.8461 4.35964 31.4804 4.72536L20.1432 16.0625L31.4804 27.4911C31.8461 27.7958 32.0289 28.1311 32.0289 28.4968C32.0289 28.8015 31.8461 29.1368 31.4804 29.5025L29.4689 31.6054C28.9814 31.9101 28.6156 32.0625 28.3718 32.0625C28.1889 32.0625 27.8536 31.9101 27.3661 31.6054L15.9375 20.1768L4.60036 31.6054C4.2956 31.9101 3.96036 32.0625 3.59464 32.0625C3.35083 32.0625 2.98511 31.9101 2.4975 31.6054L0.486071 29.5025C0.120357 29.1368 -0.0625 28.8015 -0.0625 28.4968C-0.0625 28.1311 0.120357 27.7958 0.486071 27.4911L11.8232 16.0625L0.486071 4.72536C0.120357 4.35964 -0.0625 3.99393 -0.0625 3.62821C-0.0625 3.2625 0.120357 2.92726 0.486071 2.6225Z"></path>
    </svg>