<svg width="16" height="16" viewBox="0 0 16 16" fill="none" xmlns="http://www.w3.org/2000/svg">
  <path fill-rule="evenodd" clip-rule="evenodd" d="M7.33746 1.59994C4.16875 1.59994 1.6 4.16869 1.6 7.3374C1.6 10.5061 4.16875 13.0749 7.33746 13.0749C8.22347 13.0749 9.06046 12.8746 9.80761 12.5176C10.0068 12.4224 10.2364 12.4138 10.4422 12.4937L13.7965 13.7967L12.4936 10.4424C12.4137 10.2366 12.4223 10.007 12.5175 9.80781C12.8746 9.0606 13.0749 8.22351 13.0749 7.3374C13.0749 4.16869 10.5062 1.59994 7.33746 1.59994ZM0 7.3374C0 3.28503 3.28509 -6.10352e-05 7.33746 -6.10352e-05C11.3898 -6.10352e-05 14.6749 3.28503 14.6749 7.3374C14.6749 8.3419 14.4726 9.30093 14.106 10.1746L15.9456 14.9104C16.0604 15.206 15.9898 15.5415 15.7656 15.7657C15.5414 15.99 15.2058 16.0606 14.9102 15.9458L10.1743 14.1061C9.30075 14.4726 8.34184 14.6749 7.33746 14.6749C3.28509 14.6749 0 11.3898 0 7.3374ZM4.60615 5.8353C4.60615 5.39347 4.96433 5.0353 5.40615 5.0353H9.26885C9.71068 5.0353 10.0689 5.39347 10.0689 5.8353C10.0689 6.27713 9.71068 6.6353 9.26885 6.6353H5.40615C4.96433 6.6353 4.60615 6.27713 4.60615 5.8353ZM5.40615 8.0396C4.96433 8.0396 4.60615 8.39777 4.60615 8.8396C4.60615 9.28143 4.96433 9.6396 5.40615 9.6396H7.61797C8.0598 9.6396 8.41797 9.28143 8.41797 8.8396C8.41797 8.39777 8.0598 8.0396 7.61797 8.0396H5.40615Z" fill="#1D2D3E"/>
</svg>
