<svg width="16" height="16" viewBox="0 0 16 16" fill="none" xmlns="http://www.w3.org/2000/svg">
  <path d="M13.5784 0.863509L9.94838 1.52363C9.46811 1.61097 9.02589 1.84268 8.68072 2.18785L6.86843 4.00014H5.65609C4.85365 4.00014 4.10429 4.40119 3.65917 5.06886L2.53416 6.75638C2.18646 7.27793 2.57298 8.00014 3.1998 8.00014H4.41742C4.46904 8.78535 4.6687 9.80041 5.43417 10.5657C6.1996 11.331 7.21463 11.5306 7.9998 11.5823V12.8001C7.9998 13.427 8.72201 13.8135 9.24356 13.4658L10.9311 12.3408C11.5988 11.8957 11.9998 11.1463 11.9998 10.3439V9.13151L13.8121 7.31924C14.1573 6.97405 14.389 6.5318 14.4763 6.0515L15.1363 2.42137C15.3009 1.51596 14.4838 0.698859 13.5784 0.863509ZM8.51262 9.99796C7.75181 9.98559 7.03563 9.90437 6.56543 9.43426C6.09533 8.96424 6.01405 8.24803 6.00179 7.4874L7.79115 5.34017L9.81209 3.31922C9.92715 3.20416 10.0746 3.12693 10.2346 3.09782L13.4949 2.50493L12.9021 5.76529C12.873 5.92539 12.7958 6.07281 12.6807 6.18787L10.6598 8.20879L8.51262 9.99796ZM10.6341 4.23446C10.9465 3.92204 11.4531 3.92204 11.7655 4.23446C12.0779 4.54688 12.0779 5.05341 11.7655 5.36583L11.3655 5.76583C11.0531 6.07825 10.5465 6.07825 10.2341 5.76583C9.92169 5.45341 9.9217 4.94688 10.2341 4.63446L10.6341 4.23446ZM3.36549 9.43431C3.67791 9.74673 3.67791 10.2533 3.36549 10.5657L2.56549 11.3657C2.25307 11.6781 1.74654 11.6781 1.43412 11.3657C1.1217 11.0533 1.1217 10.5467 1.43412 10.2343L2.23412 9.43431C2.54654 9.12189 3.05307 9.12189 3.36549 9.43431ZM4.56549 11.4343C4.87791 11.7467 4.87791 12.2533 4.56549 12.5657L2.16549 14.9657C1.85307 15.2781 1.34654 15.2781 1.03412 14.9657C0.7217 14.6533 0.7217 14.1467 1.03412 13.8343L3.43412 11.4343C3.74654 11.1219 4.25307 11.1219 4.56549 11.4343ZM6.56548 12.6343C6.8779 12.9467 6.87791 13.4533 6.56549 13.7657L5.76549 14.5657C5.45307 14.8781 4.94654 14.8781 4.63412 14.5657C4.3217 14.2533 4.3217 13.7467 4.63412 13.4343L5.43411 12.6343C5.74653 12.3219 6.25306 12.3219 6.56548 12.6343Z" fill="#1D2D3E"/>
</svg>
