<svg width="16" height="12" viewBox="0 0 16 12" fill="none" xmlns="http://www.w3.org/2000/svg">
<path fill-rule="evenodd" clip-rule="evenodd" d="M14.5 0H1.5C0.671562 0 0 0.671562 0 1.5V10.5C0 11.3284 0.671562 12 1.5 12H14.5C15.3284 12 16 11.3284 16 10.5V1.5C16 0.671562 15.3284 0 14.5 0ZM15 2V3.27516C14.2993 3.84575 13.1823 4.733 10.7942 6.60297C10.7057 6.67254 10.6027 6.7585 10.489 6.85333L10.489 6.85337C9.9264 7.32283 9.10346 8.00952 8.5 7.99987C7.89662 8.00962 7.07341 7.32269 6.51085 6.85326C6.39723 6.75844 6.29424 6.6725 6.20584 6.60297C3.81813 4.73328 2.70078 3.84584 2 3.27516V2H15ZM2 5V10.8001H15V5.00003C14.2839 5.57041 13.2682 6.37097 11.7204 7.58294C11.6193 7.66255 11.5083 7.75483 11.3885 7.85449C10.6737 8.44911 9.6433 9.30621 8.5 9.30003C7.35176 9.30621 6.31 8.43754 5.60536 7.84997C5.48676 7.75107 5.37771 7.66014 5.27931 7.58269C3.73153 6.37069 2.71606 5.57034 2 5Z" fill="#1A2733"/>
</svg>
