<svg width="16" height="16" viewBox="0 0 16 16" fill="none" xmlns="http://www.w3.org/2000/svg">
  <path fill-rule="evenodd" clip-rule="evenodd" d="M2.4 1.6C1.95817 1.6 1.6 1.95817 1.6 2.4V8.8H7.2V6.4V1.6H2.4ZM7.2 10.4H1.6V13.6C1.6 14.0418 1.95817 14.4 2.4 14.4H7.2V10.4ZM0 9.6V2.4C0 1.07452 1.07452 0 2.4 0H8H13.6C14.9255 0 16 1.07452 16 2.4V6.4V13.6C16 14.9255 14.9255 16 13.6 16H8H2.4C1.07452 16 0 14.9255 0 13.6V9.6ZM8.8 9.6V7.2H14.4V13.6C14.4 14.0418 14.0418 14.4 13.6 14.4H8.8V9.6ZM8.8 5.6H14.4V2.4C14.4 1.95817 14.0418 1.6 13.6 1.6H8.8V5.6Z" fill="#1D2D3E"/>
</svg>
