<svg width="16" height="16" viewBox="0 0 16 16" fill="none" xmlns="http://www.w3.org/2000/svg">
  <path d="M7.65317 0.0467327C7.57505 0.0780016 6.07838 0.750282 4.32549 1.53826C1.30715 2.89532 1.12905 2.97975 0.991571 3.12046C0.729107 3.38937 0.744729 3.01727 0.754103 8.07657L0.763477 12.5449L0.85409 12.7075C0.904083 12.7982 0.994695 12.9076 1.06031 12.9514C1.17592 13.0296 7.50006 15.8938 7.72816 15.9688C7.99999 16.0564 7.975 16.0658 11.4714 14.4961C14.4897 13.139 14.7741 13.0045 14.9084 12.8732C15.1709 12.6137 15.1553 12.9795 15.1459 7.92961L15.1365 3.47692L15.0647 3.32996C15.024 3.24553 14.9366 3.13297 14.8709 3.07668C14.7866 3.00477 13.7242 2.51072 11.462 1.49448C8.47805 0.14992 8.15935 0.012337 7.98437 0.00295634C7.84689 -0.00642431 7.75315 0.00608322 7.65317 0.0467327ZM10.1903 2.6827C11.3902 3.22052 12.3588 3.67079 12.3463 3.6833C12.3119 3.71457 7.9875 5.65949 7.95 5.65949C7.91251 5.65949 3.58809 3.71769 3.5506 3.6833C3.52248 3.65516 7.90313 1.67584 7.96562 1.69147C7.99062 1.69773 8.99361 2.14175 10.1903 2.6827ZM4.80043 6.01908L7.15011 7.07284L7.15323 8.32047C7.15323 9.38674 7.14698 9.56184 7.10949 9.54933C6.95326 9.48992 2.44137 7.60754 2.39763 7.58565C2.34451 7.55751 2.34139 7.46058 2.34139 6.24109C2.34139 4.99972 2.34451 4.92467 2.39763 4.94343C2.42575 4.95594 3.50685 5.43748 4.80043 6.01908ZM13.5524 6.20044L13.543 7.47308L11.1683 8.56124C9.86224 9.1616 8.78426 9.65252 8.77176 9.65252C8.75614 9.65252 8.74677 9.07092 8.74677 8.36112V7.07284L11.1152 6.00345C12.415 5.41872 13.4992 4.93405 13.5211 4.93405C13.5524 4.93093 13.5586 5.19358 13.5524 6.20044ZM13.5586 10.5093C13.5586 11.488 13.5492 11.7819 13.5211 11.8007C13.4555 11.8413 8.79676 13.9364 8.77176 13.9364C8.75614 13.9364 8.74989 13.3735 8.75302 12.6856L8.76239 11.4317L11.1371 10.3404C12.4431 9.74007 13.5211 9.24915 13.5367 9.24915C13.5492 9.24603 13.5586 9.81512 13.5586 10.5093ZM4.77856 10.3217L7.13761 11.3035L7.14698 12.6231C7.15323 13.7738 7.14698 13.9395 7.10637 13.9301C7.08137 13.9238 6.00027 13.4423 4.70044 12.8576L2.34139 11.7944V10.5531C2.34139 9.57122 2.35076 9.31482 2.38201 9.3242C2.40075 9.33358 3.48186 9.78072 4.77856 10.3217Z" fill="#1D2D3E"/>
  <path d="M7.52506 2.32311C6.93139 2.42942 6.49082 2.73273 6.26898 3.17987C6.17837 3.36436 6.16899 3.40813 6.16899 3.68017C6.16899 3.95534 6.17837 3.99599 6.2721 4.18986C6.45645 4.56195 6.81265 4.84337 7.28759 4.98721C7.6188 5.08727 8.21246 5.09978 8.52492 5.01223C9.40918 4.76833 9.90286 4.07103 9.69664 3.36436C9.54353 2.8453 9.02173 2.43567 8.35619 2.31998C8.02811 2.2637 7.84376 2.2637 7.52506 2.32311ZM8.38432 3.57386C8.45306 3.60513 8.51242 3.65203 8.5218 3.67392C8.52805 3.69581 8.46556 3.74271 8.36557 3.78961C8.14685 3.8928 7.7969 3.89906 7.54693 3.80212C7.45007 3.76773 7.3657 3.72708 7.35633 3.71144C7.33446 3.67705 7.45632 3.59262 7.61567 3.53634C7.78127 3.4738 8.22496 3.49569 8.38432 3.57386Z" fill="#1D2D3E"/>
</svg>
