<svg width="19" height="19" viewBox="0 0 19 19" fill="none" xmlns="http://www.w3.org/2000/svg">
<path d="M0.599976 9.96484C0.599976 8.72266 0.834351 7.5625 1.3031 6.48438C1.77185 5.38281 2.41638 4.42188 3.23669 3.60156C4.05701 2.78125 5.00623 2.13672 6.08435 1.66797C7.18591 1.19922 8.35779 0.964844 9.59998 0.964844C10.8422 0.964844 12.0023 1.19922 13.0804 1.66797C14.182 2.13672 15.1429 2.78125 15.9633 3.60156C16.7836 4.42188 17.4281 5.38281 17.8969 6.48438C18.3656 7.5625 18.6 8.72266 18.6 9.96484C18.6 11.207 18.3656 12.3789 17.8969 13.4805C17.4281 14.5586 16.7836 15.5078 15.9633 16.3281C15.1429 17.1484 14.182 17.793 13.0804 18.2617C12.0023 18.7305 10.8422 18.9648 9.59998 18.9648C8.35779 18.9648 7.18591 18.7305 6.08435 18.2617C5.00623 17.793 4.05701 17.1484 3.23669 16.3281C2.41638 15.5078 1.77185 14.5586 1.3031 13.4805C0.834351 12.3789 0.599976 11.207 0.599976 9.96484ZM10.8656 2.89844C11.3344 3.48438 11.7445 4.10547 12.0961 4.76172C12.4711 5.41797 12.764 6.12109 12.975 6.87109H16.1039C15.5883 5.81641 14.8734 4.9375 13.9594 4.23438C13.0453 3.53125 12.014 3.08594 10.8656 2.89844ZM5.97888 6.87109C6.40076 5.41797 7.09216 4.10547 8.0531 2.93359C6.95154 3.19141 5.96716 3.67188 5.09998 4.375C4.23279 5.05469 3.56482 5.88672 3.09607 6.87109H5.97888ZM11.2172 6.87109C10.8187 5.69922 10.2328 4.67969 9.45935 3.8125C8.70935 4.70312 8.13513 5.72266 7.73669 6.87109H11.2172ZM7.34998 8.55859C7.3031 8.79297 7.26794 9.02734 7.24451 9.26172C7.22107 9.47266 7.20935 9.70703 7.20935 9.96484C7.20935 10.2227 7.22107 10.4688 7.24451 10.7031C7.26794 10.9141 7.3031 11.1367 7.34998 11.3711H11.6039C11.6742 10.9023 11.7094 10.4336 11.7094 9.96484C11.7094 9.47266 11.6742 9.00391 11.6039 8.55859H7.34998ZM13.3265 8.55859C13.35 8.79297 13.3617 9.02734 13.3617 9.26172C13.3851 9.47266 13.3969 9.70703 13.3969 9.96484C13.3969 10.2227 13.3851 10.4688 13.3617 10.7031C13.3617 10.9141 13.35 11.1367 13.3265 11.3711H16.6664C16.7133 11.1367 16.7484 10.9141 16.7719 10.7031C16.7953 10.4688 16.807 10.2227 16.807 9.96484C16.807 9.70703 16.7953 9.47266 16.7719 9.26172C16.7484 9.02734 16.7133 8.79297 16.6664 8.55859H13.3265ZM2.53357 8.55859C2.48669 8.79297 2.45154 9.02734 2.4281 9.26172C2.40466 9.47266 2.39294 9.70703 2.39294 9.96484C2.39294 10.2227 2.40466 10.4688 2.4281 10.7031C2.45154 10.9141 2.48669 11.1367 2.53357 11.3711H5.62732C5.60388 11.1367 5.58044 10.9141 5.55701 10.7031C5.53357 10.4688 5.52185 10.2227 5.52185 9.96484C5.52185 9.70703 5.53357 9.47266 5.55701 9.26172C5.58044 9.02734 5.60388 8.79297 5.62732 8.55859H2.53357ZM12.975 13.0586C12.764 13.8086 12.4711 14.5117 12.0961 15.168C11.7445 15.8242 11.3344 16.4453 10.8656 17.0312C12.014 16.8438 13.0453 16.3984 13.9594 15.6953C14.8734 14.9688 15.5883 14.0898 16.1039 13.0586H12.975ZM3.09607 13.0586C3.56482 14.043 4.23279 14.8867 5.09998 15.5898C5.96716 16.2695 6.95154 16.7383 8.0531 16.9961C7.09216 15.8242 6.40076 14.5117 5.97888 13.0586H3.09607ZM9.45935 16.1172C10.2094 15.2266 10.7836 14.207 11.182 13.0586H7.73669C8.13513 14.207 8.70935 15.2266 9.45935 16.1172Z" fill="#475E75"/>
</svg>
