<svg width="18" height="18" viewBox="0 0 18 18" fill="none" xmlns="http://www.w3.org/2000/svg">
<path d="M9.01758 0.0351562C10.1426 0.0351562 11.1973 0.246094 12.1816 0.667969C13.166 1.08984 14.0215 1.66406 14.748 2.39062C15.4746 3.11719 16.0488 3.97266 16.4707 4.95703C16.8926 5.94141 17.1035 6.99609 17.1035 8.12109V12.6211C17.1035 13.3477 16.9629 14.0391 16.6816 14.6953C16.4004 15.3516 16.0137 15.9258 15.5215 16.418C15.0293 16.9102 14.4551 17.2969 13.7988 17.5781C13.1426 17.8594 12.4395 18 11.6895 18H9.01758C8.4082 18 8.10352 17.6953 8.10352 17.0859V16.207C8.10352 15.5977 8.4082 15.293 9.01758 15.293C9.60352 15.293 9.89648 15.5977 9.89648 16.207H11.6895C12.1582 16.207 12.5801 16.125 12.9551 15.9609C13.3535 15.7734 13.7168 15.5508 14.0449 15.293H12.6035C12.3457 15.293 12.123 15.2109 11.9355 15.0469C11.7715 14.8828 11.6895 14.6719 11.6895 14.4141V9C11.6895 8.74219 11.7715 8.53125 11.9355 8.36719C12.123 8.20312 12.3457 8.12109 12.6035 8.12109H15.3105C15.3105 7.23047 15.1465 6.41016 14.8184 5.66016C14.4902 4.88672 14.0332 4.21875 13.4473 3.65625C12.8848 3.09375 12.2168 2.64844 11.4434 2.32031C10.6934 1.99219 9.88477 1.82812 9.01758 1.82812C8.15039 1.82812 7.33008 1.99219 6.55664 2.32031C5.7832 2.64844 5.11523 3.09375 4.55273 3.65625C3.99023 4.21875 3.54492 4.88672 3.2168 5.66016C2.88867 6.41016 2.72461 7.23047 2.72461 8.12109H5.43164C6.01758 8.12109 6.31055 8.41406 6.31055 9V14.4141C6.31055 15 6.01758 15.293 5.43164 15.293H3.60352C2.85352 15.293 2.2207 15.0352 1.70508 14.5195C1.18945 14.0039 0.931641 13.3711 0.931641 12.6211V8.12109C0.931641 6.99609 1.14258 5.94141 1.56445 4.95703C1.98633 3.97266 2.56055 3.11719 3.28711 2.39062C4.01367 1.66406 4.86914 1.08984 5.85352 0.667969C6.83789 0.246094 7.89258 0.0351562 9.01758 0.0351562ZM2.72461 9.91406V12.6211C2.72461 13.207 3.01758 13.5 3.60352 13.5H4.51758V9.91406H2.72461ZM13.5176 13.5H14.3965C14.6543 13.5 14.8652 13.418 15.0293 13.2539C15.2168 13.0898 15.3105 12.8789 15.3105 12.6211V9.91406H13.5176V13.5Z" fill="#354A5F"/>
</svg>
