<svg width="120" height="120" viewBox="0 0 120 120" fill="none" xmlns="http://www.w3.org/2000/svg">
  <path d="M47.7451 100.975V107.585H52.5051H53.7551H64.2951H65.5451H70.1951V100.975H47.7451Z" fill="#89D1FF"/>
  <path d="M70.1951 93.115H47.7451V99.725H70.1951V93.115Z" fill="#0070F2"/>
  <path d="M69.4201 85.2549H53.7551V85.2849C53.7051 85.2749 53.6501 85.2649 53.6001 85.2549H47.7451V91.8649H70.1951V85.2549H69.4201Z" fill="#2CE0BF"/>
  <path d="M59.0248 22.8549C41.3398 22.8549 26.9548 37.2399 26.9548 54.9249C26.9548 68.1648 35.0198 79.5549 46.4898 84.4399V108.835H52.4998V109.8C52.4998 111.36 53.7698 112.63 55.3298 112.63H62.7048C64.2648 112.63 65.5398 111.36 65.5398 109.8V108.835H71.4348V84.4849C82.9698 79.6249 91.0848 68.1999 91.0848 54.9199C91.0848 37.2349 76.6998 22.8499 59.0148 22.8499L59.0248 22.8549ZM53.7548 57.6499H64.2948V84.0049H53.7548V57.6499ZM70.1948 85.2549V91.8649H47.7448V85.2549H70.1948ZM70.1948 107.59H47.7448V100.98H70.1948V107.59ZM70.1948 99.7299H47.7448V93.1199H70.1948V99.7299ZM64.2998 109.805C64.2998 110.68 63.5898 111.385 62.7148 111.385H55.3398C54.4648 111.385 53.7598 110.675 53.7598 109.805V108.84H64.2998V109.805ZM69.2148 84.0099H65.5498V57.6549H70.8198V52.6549H47.2348V57.6549H52.5048V84.0099H48.8398C36.8398 79.7949 28.2098 68.3549 28.2098 54.9299C28.2098 37.9349 42.0348 24.1099 59.0298 24.1099C76.0248 24.1099 89.8498 37.9349 89.8498 54.9299C89.8498 68.3549 81.2198 79.7949 69.2198 84.0099H69.2148Z" fill="#1A2733"/>
  <path d="M59.0249 20.3999C59.3701 20.3999 59.6499 20.1201 59.6499 19.7749C59.6499 19.4297 59.3701 19.1499 59.0249 19.1499C58.6797 19.1499 58.3999 19.4297 58.3999 19.7749C58.3999 20.1201 58.6797 20.3999 59.0249 20.3999Z" fill="#1A2733"/>
  <path d="M59.0249 8.3999C59.3701 8.3999 59.6499 8.12008 59.6499 7.7749C59.6499 7.42972 59.3701 7.1499 59.0249 7.1499C58.6797 7.1499 58.3999 7.42972 58.3999 7.7749C58.3999 8.12008 58.6797 8.3999 59.0249 8.3999Z" fill="#1A2733"/>
  <path d="M59.0249 16.3999C59.3701 16.3999 59.6499 16.1201 59.6499 15.7749C59.6499 15.4297 59.3701 15.1499 59.0249 15.1499C58.6797 15.1499 58.3999 15.4297 58.3999 15.7749C58.3999 16.1201 58.6797 16.3999 59.0249 16.3999Z" fill="#1A2733"/>
  <path d="M59.0249 12.3999C59.3701 12.3999 59.6499 12.1201 59.6499 11.7749C59.6499 11.4297 59.3701 11.1499 59.0249 11.1499C58.6797 11.1499 58.3999 11.4297 58.3999 11.7749C58.3999 12.1201 58.6797 12.3999 59.0249 12.3999Z" fill="#1A2733"/>
  <path d="M23.6499 55.7749C23.9951 55.7749 24.2749 55.4951 24.2749 55.1499C24.2749 54.8047 23.9951 54.5249 23.6499 54.5249C23.3047 54.5249 23.0249 54.8047 23.0249 55.1499C23.0249 55.4951 23.3047 55.7749 23.6499 55.7749Z" fill="#1A2733"/>
  <path d="M19.6499 55.7749C19.9951 55.7749 20.2749 55.4951 20.2749 55.1499C20.2749 54.8047 19.9951 54.5249 19.6499 54.5249C19.3047 54.5249 19.0249 54.8047 19.0249 55.1499C19.0249 55.4951 19.3047 55.7749 19.6499 55.7749Z" fill="#1A2733"/>
  <path d="M15.6499 55.7749C15.9951 55.7749 16.2749 55.4951 16.2749 55.1499C16.2749 54.8047 15.9951 54.5249 15.6499 54.5249C15.3047 54.5249 15.0249 54.8047 15.0249 55.1499C15.0249 55.4951 15.3047 55.7749 15.6499 55.7749Z" fill="#1A2733"/>
  <path d="M11.6499 55.7749C11.9951 55.7749 12.2749 55.4951 12.2749 55.1499C12.2749 54.8047 11.9951 54.5249 11.6499 54.5249C11.3047 54.5249 11.0249 54.8047 11.0249 55.1499C11.0249 55.4951 11.3047 55.7749 11.6499 55.7749Z" fill="#1A2733"/>
  <path d="M104.155 55.7749C104.5 55.7749 104.78 55.4951 104.78 55.1499C104.78 54.8047 104.5 54.5249 104.155 54.5249C103.81 54.5249 103.53 54.8047 103.53 55.1499C103.53 55.4951 103.81 55.7749 104.155 55.7749Z" fill="#1A2733"/>
  <path d="M96.1549 55.7749C96.5001 55.7749 96.7799 55.4951 96.7799 55.1499C96.7799 54.8047 96.5001 54.5249 96.1549 54.5249C95.8097 54.5249 95.5299 54.8047 95.5299 55.1499C95.5299 55.4951 95.8097 55.7749 96.1549 55.7749Z" fill="#1A2733"/>
  <path d="M100.155 55.7749C100.5 55.7749 100.78 55.4951 100.78 55.1499C100.78 54.8047 100.5 54.5249 100.155 54.5249C99.8097 54.5249 99.5299 54.8047 99.5299 55.1499C99.5299 55.4951 99.8097 55.7749 100.155 55.7749Z" fill="#1A2733"/>
  <path d="M108.155 55.7749C108.5 55.7749 108.78 55.4951 108.78 55.1499C108.78 54.8047 108.5 54.5249 108.155 54.5249C107.81 54.5249 107.53 54.8047 107.53 55.1499C107.53 55.4951 107.81 55.7749 108.155 55.7749Z" fill="#1A2733"/>
  <path d="M34.01 30.76C34.17 30.76 34.33 30.7 34.455 30.575C34.7 30.335 34.7 29.94 34.455 29.695C34.21 29.45 33.815 29.45 33.57 29.695C33.325 29.94 33.325 30.335 33.57 30.575C33.69 30.7 33.85 30.76 34.01 30.76Z" fill="#1A2733"/>
  <path d="M31.1848 27.9299C31.3448 27.9299 31.5048 27.8699 31.6248 27.7499C31.8698 27.5049 31.8698 27.1099 31.6248 26.8649C31.3798 26.6199 30.9848 26.6199 30.7398 26.8649C30.4998 27.1099 30.4998 27.5049 30.7398 27.7499C30.8648 27.8699 31.0248 27.9299 31.1848 27.9299Z" fill="#1A2733"/>
  <path d="M28.3549 25.1048C28.515 25.1048 28.675 25.0448 28.795 24.9198C29.04 24.6748 29.04 24.2798 28.795 24.0348C28.555 23.7898 28.155 23.7898 27.915 24.0348C27.67 24.2798 27.67 24.6748 27.915 24.9198C28.035 25.0448 28.1949 25.1048 28.3549 25.1048Z" fill="#1A2733"/>
  <path d="M25.0849 21.21C24.8399 21.45 24.8399 21.85 25.0849 22.09C25.2049 22.215 25.3649 22.275 25.5249 22.275C25.6849 22.275 25.8449 22.215 25.9699 22.09C26.2099 21.85 26.2099 21.45 25.9699 21.21C25.7299 20.97 25.3299 20.965 25.0849 21.21Z" fill="#1A2733"/>
  <path d="M88.11 26.6899C88.27 26.6899 88.43 26.6299 88.555 26.5049C88.795 26.2599 88.795 25.8649 88.555 25.6249C88.31 25.3799 87.915 25.3799 87.67 25.6249C87.425 25.8649 87.425 26.2599 87.67 26.5049C87.79 26.6299 87.95 26.6899 88.11 26.6899Z" fill="#1A2733"/>
  <path d="M85.2799 29.52C85.4399 29.52 85.5999 29.46 85.7249 29.335C85.9699 29.09 85.9699 28.695 85.7249 28.45C85.4799 28.21 85.0849 28.21 84.8399 28.45C84.5949 28.695 84.5949 29.09 84.8399 29.335C84.9599 29.46 85.1199 29.52 85.2799 29.52Z" fill="#1A2733"/>
  <path d="M93.3249 19.965C93.0799 20.21 93.0799 20.605 93.3249 20.85C93.4449 20.97 93.6049 21.035 93.7649 21.035C93.9249 21.035 94.0849 20.97 94.2099 20.85C94.4549 20.605 94.4549 20.21 94.2099 19.965C93.9649 19.72 93.5699 19.72 93.3249 19.965Z" fill="#1A2733"/>
  <path d="M90.4949 22.7948C90.2499 23.0398 90.2499 23.4348 90.4949 23.6798C90.6199 23.7998 90.7799 23.8598 90.9399 23.8598C91.0999 23.8598 91.2599 23.7998 91.3799 23.6798C91.6249 23.4348 91.6249 23.0398 91.3799 22.7948C91.1349 22.5498 90.7399 22.5498 90.4949 22.7948Z" fill="#1A2733"/>
  <path d="M53.7549 85.2549H53.5999C53.6499 85.2649 53.7049 85.2749 53.7549 85.2849V85.2549Z" fill="#1A2733"/>
</svg>
