<svg width="16" height="16" viewBox="0 0 16 16" fill="none" xmlns="http://www.w3.org/2000/svg">
<g clip-path="url(#clip0_19663_1168)">
<path d="M10.4634 7.92683C10.4634 8.42852 10.3146 8.91894 10.0359 9.33608C9.7572 9.75322 9.36104 10.0783 8.89754 10.2703C8.43404 10.4623 7.92402 10.5125 7.43197 10.4147C6.93992 10.3168 6.48794 10.0752 6.13319 9.72047C5.77844 9.36572 5.53686 8.91374 5.43898 8.42169C5.34111 7.92964 5.39134 7.41962 5.58333 6.95612C5.77532 6.49262 6.10044 6.09646 6.51758 5.81774C6.93472 5.53901 7.42514 5.39024 7.92683 5.39024C8.59934 5.39101 9.24408 5.65851 9.71962 6.13404C10.1952 6.60958 10.4626 7.25432 10.4634 7.92683ZM15.8537 4.43902V11.4146C15.8523 12.5915 15.3842 13.7198 14.552 14.552C13.7198 15.3842 12.5915 15.8523 11.4146 15.8537H4.43902C3.26213 15.8523 2.13382 15.3842 1.30163 14.552C0.469443 13.7198 0.00133288 12.5915 0 11.4146V4.43902C0.00133288 3.26213 0.469443 2.13382 1.30163 1.30163C2.13382 0.469443 3.26213 0.00133288 4.43902 0H11.4146C12.5915 0.00133288 13.7198 0.469443 14.552 1.30163C15.3842 2.13382 15.8523 3.26213 15.8537 4.43902ZM11.7317 7.92683C11.7317 7.1743 11.5086 6.43866 11.0905 5.81295C10.6724 5.18724 10.0781 4.69956 9.38289 4.41158C8.68764 4.1236 7.92261 4.04825 7.18453 4.19506C6.44646 4.34187 5.7685 4.70425 5.23637 5.23637C4.70425 5.7685 4.34187 6.44646 4.19506 7.18453C4.04825 7.92261 4.1236 8.68764 4.41158 9.38289C4.69956 10.0781 5.18724 10.6724 5.81295 11.0905C6.43866 11.5086 7.1743 11.7317 7.92683 11.7317C8.9356 11.7306 9.90272 11.3293 10.616 10.616C11.3293 9.90272 11.7306 8.9356 11.7317 7.92683ZM13 3.80488C13 3.61674 12.9442 3.43284 12.8397 3.27641C12.7352 3.11998 12.5866 2.99806 12.4128 2.92607C12.239 2.85407 12.0477 2.83523 11.8632 2.87194C11.6787 2.90864 11.5092 2.99923 11.3762 3.13226C11.2431 3.26529 11.1525 3.43479 11.1158 3.6193C11.0791 3.80382 11.098 3.99508 11.17 4.16889C11.242 4.34271 11.3639 4.49127 11.5203 4.59579C11.6767 4.70031 11.8606 4.7561 12.0488 4.7561C12.3011 4.7561 12.543 4.65588 12.7214 4.47749C12.8998 4.2991 13 4.05716 13 3.80488Z" fill="#1A2733"/>
</g>
<defs>
<clipPath id="clip0_19663_1168">
<rect width="16" height="16" fill="white"/>
</clipPath>
</defs>
</svg>
