<svg width="16" height="12" viewBox="0 0 16 12" fill="none" xmlns="http://www.w3.org/2000/svg">
  <path d="M8 12C7.87 12 7.73 11.97 7.61 11.9L3.41 9.59C3.15 9.45 3 9.18 3 8.89V6.53L0.43 5.21C0.16 5.07 0 4.8 0 4.5C0 4.2 0.17 3.93 0.43 3.79L7.63 0.09C7.86 -0.03 8.13 -0.03 8.36 0.09L15.54 3.78C15.6 3.81 15.65 3.84 15.7 3.88C15.73 3.91 15.77 3.94 15.8 3.97C15.92 4.11 15.99 4.29 16 4.49V8.19C16 8.63 15.64 8.99 15.2 8.99C14.76 8.99 14.4 8.63 14.4 8.19V5.8L13 6.52V8.88C13 9.17 12.84 9.44 12.59 9.58L8.39 11.89C8.27 11.96 8.14 11.99 8 11.99V12ZM4.6 8.41L8 10.28L11.4 8.41V7.35L8.37 8.91C8.14 9.03 7.87 9.03 7.64 8.91L4.61 7.35V8.41H4.6ZM4.18 5.33L8 7.29L11.82 5.33C11.82 5.33 11.84 5.32 11.85 5.32L13.45 4.5L8 1.7L2.55 4.5L4.15 5.32C4.15 5.32 4.17 5.32 4.18 5.33Z" fill="#1D2D3E"/>
</svg>
