<svg width="18" height="16" viewBox="0 0 18 16" fill="none" xmlns="http://www.w3.org/2000/svg">
<path fill-rule="evenodd" clip-rule="evenodd" d="M2.75919 3.89374C1.70084 3.89374 0.842041 3.01713 0.842041 1.95878C0.842041 0.900423 1.70084 0.041626 2.75919 0.041626C3.81754 0.041626 4.67634 0.900423 4.67634 1.95878C4.67634 3.01713 3.81754 3.89374 2.75919 3.89374ZM4.16032 15.7H0.849854V5.04163H4.16032V15.7ZM13.8511 15.9583H17.1544H17.158V10.1035C17.158 7.23851 16.5415 5.03271 13.1918 5.03271C11.5811 5.03271 10.5014 5.91646 10.0595 6.75387H10.0132V5.29998H6.83813V15.9583H10.145V10.6808C10.145 9.29107 10.4087 7.94764 12.1299 7.94764C13.8261 7.94764 13.8511 9.53338 13.8511 10.7699V15.9583Z" fill="#1A2733"/>
</svg>
