<svg width="18" height="18" viewBox="0 0 18 18" fill="none" xmlns="http://www.w3.org/2000/svg">
<path d="M12.5684 8.50769C13.8809 8.99988 14.9355 9.83191 15.7324 11.0038C16.5527 12.1522 16.9629 13.4764 16.9629 14.9764V16.9803C16.9629 17.285 16.8691 17.5311 16.6816 17.7186C16.5176 17.9061 16.2832 17.9999 15.9785 17.9999H1.98633C1.68164 17.9999 1.43555 17.9061 1.24805 17.7186C1.08398 17.5311 1.00195 17.285 1.00195 16.9803V14.9764C1.00195 13.4764 1.40039 12.1522 2.19727 11.0038C3.01758 9.83191 4.08398 8.99988 5.39648 8.50769C4.45898 7.57019 3.99023 6.41003 3.99023 5.02722C3.99023 4.3241 4.11914 3.66785 4.37695 3.05847C4.63477 2.4491 4.98633 1.92175 5.43164 1.47644C5.90039 1.03113 6.42773 0.679565 7.01367 0.421753C7.62305 0.16394 8.2793 0.0350342 8.98242 0.0350342C9.68555 0.0350342 10.3418 0.16394 10.9512 0.421753C11.5605 0.679565 12.0879 1.03113 12.5332 1.47644C12.9785 1.92175 13.3301 2.4491 13.5879 3.05847C13.8457 3.66785 13.9746 4.3241 13.9746 5.02722C13.9746 6.41003 13.5059 7.57019 12.5684 8.50769ZM8.98242 2.00378C8.13867 2.00378 7.42383 2.29675 6.83789 2.88269C6.27539 3.44519 5.99414 4.16003 5.99414 5.02722C5.99414 5.87097 6.27539 6.58582 6.83789 7.17175C7.42383 7.73425 8.13867 8.0155 8.98242 8.0155C9.82617 8.0155 10.5293 7.73425 11.0918 7.17175C11.6777 6.58582 11.9707 5.87097 11.9707 5.02722C11.9707 4.16003 11.6777 3.44519 11.0918 2.88269C10.5293 2.29675 9.82617 2.00378 8.98242 2.00378ZM14.959 14.9764C14.959 14.2733 14.8301 13.6288 14.5723 13.0428C14.3145 12.4335 13.9629 11.9061 13.5176 11.4608C13.0723 10.9921 12.5449 10.6288 11.9355 10.371C11.3496 10.1132 10.7051 9.98425 10.002 9.98425H7.99805C7.29492 9.98425 6.63867 10.1132 6.0293 10.371C5.41992 10.6288 4.89258 10.9921 4.44727 11.4608C4.00195 11.9061 3.65039 12.4335 3.39258 13.0428C3.13477 13.6288 3.00586 14.2733 3.00586 14.9764V15.996H14.959V14.9764Z" fill="#354A5F"/>
</svg>
