<svg width="16" height="16" viewBox="0 0 16 16" fill="none" xmlns="http://www.w3.org/2000/svg">
  <path d="M15.2 16H0.799999C0.359999 16 0 15.64 0 15.2C0 14.76 0.359999 14.4 0.799999 14.4H15.2C15.64 14.4 16 14.76 16 15.2C16 15.64 15.64 16 15.2 16ZM8 12C7.79 12 7.58 11.91 7.43 11.76L3.83 8.16C3.52 7.85 3.52 7.34 3.83 7.03C4.14 6.72 4.65 6.72 4.96 7.03L7.19 9.26V0.8C7.19 0.36 7.55 0 7.99 0C8.43 0 8.79 0.36 8.79 0.8V9.27L11.02 7.04C11.33 6.73 11.84 6.73 12.15 7.04C12.46 7.35 12.46 7.86 12.15 8.17L8.55 11.77C8.41 11.92 8.22 12 7.98 12.01L8 12Z" fill="#1D2D3E"/>
</svg>
