<svg width="66" height="32" viewBox="0 0 66 32" fill="none" xmlns="http://www.w3.org/2000/svg">
<path fill-rule="evenodd" clip-rule="evenodd" d="M0 32H33.05L65.396 0H0V32Z" fill="url(#paint0_linear_8959_40007)"/>
<path fill-rule="evenodd" clip-rule="evenodd" d="M38.8097 6.01724H32.3713V21.1576L26.748 6.01254H21.1722L16.372 18.6745C15.8582 15.4823 12.528 14.3796 9.89549 13.5529C8.16061 13.0023 6.31947 12.1914 6.34326 11.2941C6.35753 10.56 7.33123 9.88234 9.25799 9.97959C10.5536 10.047 11.6954 10.1506 13.9695 11.2345L16.2055 7.38352C14.1233 6.34038 11.2593 5.67999 8.90753 5.67685H8.89326C6.15296 5.67685 3.86939 6.55528 2.45484 8.00312C1.47531 8.99777 0.923413 10.3291 0.915007 11.7176C0.878533 13.6706 1.60325 15.0588 3.12564 16.1568C4.41015 17.0886 6.05306 17.6925 7.50249 18.1365C9.28971 18.6839 10.7487 19.1608 10.7312 20.1757C10.7211 20.5498 10.5701 20.9067 10.3078 21.1765C9.86219 21.6314 9.17712 21.8039 8.23197 21.8196C6.40987 21.8572 5.06033 21.5749 2.90204 20.3153L0.915007 24.2227C3.13946 25.4716 5.65199 26.1319 8.20977 26.1396H8.54438C10.8026 26.1004 12.6263 25.4635 14.0821 24.3027C14.1661 24.2384 14.2406 24.171 14.3183 24.1019L13.665 25.8039H19.5056L20.4872 22.8517C21.5958 23.2155 22.7572 23.3973 23.9252 23.3898C25.0639 23.3953 26.1963 23.2233 27.2808 22.88L28.2323 25.8039H37.7694V19.6863H39.8484C44.8771 19.6863 47.8505 17.1529 47.8505 12.9098C47.8505 8.18665 44.9611 6.01724 38.8097 6.01724ZM23.9316 18.9804C23.2282 18.9846 22.5299 18.8634 21.87 18.6227L23.911 12.2557H23.9458L25.9519 18.6416C25.3026 18.8663 24.6195 18.9808 23.9316 18.9804ZM39.1871 15.3208H37.7694V10.1819H39.1871C41.079 10.1819 42.5871 10.8094 42.5871 12.7137C42.5871 14.6902 41.079 15.3129 39.1871 15.3129" fill="white"/>
<defs>
<linearGradient id="paint0_linear_8959_40007" x1="32.698" y1="0" x2="32.698" y2="32" gradientUnits="userSpaceOnUse">
<stop stop-color="#00B8F1"/>
<stop offset="0.02" stop-color="#01B6F0"/>
<stop offset="0.31" stop-color="#0D90D9"/>
<stop offset="0.58" stop-color="#1775C8"/>
<stop offset="0.82" stop-color="#1C65BF"/>
<stop offset="1" stop-color="#1E5FBB"/>
</linearGradient>
</defs>
</svg>
