<svg width="16" height="16" viewBox="0 0 16 16" fill="none" xmlns="http://www.w3.org/2000/svg">
  <path d="M8 1.6C11.53 1.6 14.4 4.47 14.4 8C14.4 11.53 11.53 14.4 8 14.4C4.47 14.4 1.6 11.53 1.6 8C1.6 4.47 4.47 1.6 8 1.6ZM8 0C3.6 0 0 3.6 0 8C0 12.4 3.6 16 8 16C12.4 16 16 12.4 16 8C16 3.6 12.4 0 8 0ZM8.02 11C7.47 11 7.02 11.45 7.02 12C7.02 12.55 7.47 13 8.02 13C8.57 13 9.02 12.55 9.02 12C9.02 11.45 8.57 11 8.02 11ZM8 3C6.35 3 5 4.35 5 6C5 6.44 5.36 6.8 5.8 6.8C6.24 6.8 6.6 6.44 6.6 6C6.6 5.23 7.23 4.6 8 4.6C8.77 4.6 9.4 5.23 9.4 6C9.4 6.77 8.77 7.4 8 7.4C7.56 7.4 7.2 7.76 7.2 8.2V9.2C7.2 9.64 7.56 10 8 10C8.44 10 8.8 9.64 8.8 9.2V8.88C10.06 8.53 11 7.38 11 6C11 4.35 9.65 3 8 3Z" fill="#1D2D3E"/>
</svg>
