<svg width="18" height="18" viewBox="0 0 18 18" fill="none" xmlns="http://www.w3.org/2000/svg">
<path d="M16.207 5.51953C16.207 5.23828 16.1133 5.00391 15.9258 4.81641C15.7617 4.60547 15.5508 4.5 15.293 4.5H6.29297C6.03516 4.5 5.82422 4.60547 5.66016 4.81641C5.49609 5.00391 5.41406 5.23828 5.41406 5.51953V14.8008L7.45312 12.6211C7.64062 12.4336 7.85156 12.3398 8.08594 12.3398H15.293C15.5508 12.3398 15.7617 12.2461 15.9258 12.0586C16.1133 11.8477 16.207 11.6016 16.207 11.3203V5.51953ZM1.79297 11.3203L3.58594 9.52734V5.51953C3.58594 4.74609 3.84375 4.08984 4.35938 3.55078C4.89844 2.98828 5.54297 2.70703 6.29297 2.70703H12.5859C12.5859 2.44922 12.5039 2.23828 12.3398 2.07422C12.1758 1.88672 11.9648 1.79297 11.707 1.79297H2.70703C2.44922 1.79297 2.22656 1.88672 2.03906 2.07422C1.875 2.23828 1.79297 2.44922 1.79297 2.70703V11.3203ZM15.293 2.70703C16.043 2.70703 16.6758 2.98828 17.1914 3.55078C17.7305 4.08984 18 4.74609 18 5.51953V11.3203C18 12.0938 17.7305 12.7617 17.1914 13.3242C16.6758 13.8633 16.043 14.1328 15.293 14.1328H8.50781L5.16797 17.7188C4.98047 17.9062 4.75781 18 4.5 18C4.42969 18 4.32422 17.9766 4.18359 17.9297C3.78516 17.7656 3.58594 17.4844 3.58594 17.0859V12.0586L1.54688 14.1328C1.35938 14.3203 1.14844 14.4141 0.914062 14.4141C0.820312 14.4141 0.703125 14.3906 0.5625 14.3438C0.375 14.2734 0.234375 14.168 0.140625 14.0273C0.046875 13.8633 0 13.6875 0 13.5V2.70703C0 1.95703 0.257812 1.32422 0.773438 0.808594C1.3125 0.269531 1.95703 0 2.70703 0H11.707C12.457 0 13.0898 0.269531 13.6055 0.808594C14.1445 1.32422 14.4141 1.95703 14.4141 2.70703H15.293Z" fill="#354A5F"/>
</svg>
