<svg width="16" height="16" viewBox="0 0 16 16" fill="none" xmlns="http://www.w3.org/2000/svg">
  <path d="M3.43422 1.0343C3.74664 0.721883 4.25317 0.721883 4.56559 1.0343L7.36559 3.8343C7.67801 4.14672 7.67801 4.65325 7.36559 4.96567L4.56559 7.76567C4.25317 8.07809 3.74664 8.07809 3.43422 7.76567L0.634217 4.96567C0.321797 4.65325 0.321797 4.14672 0.634217 3.8343L3.43422 1.0343ZM9.20341 0.905154C9.4529 0.762785 9.75958 0.76511 10.0069 0.911247L14.4069 3.51125C14.6505 3.65518 14.7999 3.91706 14.7999 4.19999C14.7999 4.48291 14.6505 4.7448 14.4069 4.88873L10.0069 7.48873C9.75958 7.63487 9.4529 7.63719 9.20341 7.49482C8.95391 7.35245 8.7999 7.08724 8.7999 6.79999V1.59999C8.7999 1.31273 8.95391 1.04752 9.20341 0.905154ZM10.3999 3.00195V5.39803L12.4274 4.19999L10.3999 3.00195ZM2.33127 4.39999L3.9999 6.06862L5.66853 4.39999L3.9999 2.73136L2.33127 4.39999ZM11.9999 10.4C11.1162 10.4 10.3999 11.1163 10.3999 12C10.3999 12.8836 11.1162 13.6 11.9999 13.6C12.8836 13.6 13.5999 12.8836 13.5999 12C13.5999 11.1163 12.8836 10.4 11.9999 10.4ZM8.7999 12C8.7999 10.2327 10.2326 8.79999 11.9999 8.79999C13.7672 8.79999 15.1999 10.2327 15.1999 12C15.1999 13.7673 13.7672 15.2 11.9999 15.2C10.2326 15.2 8.7999 13.7673 8.7999 12ZM0.799902 9.99999C0.799902 9.55816 1.15807 9.19999 1.5999 9.19999H6.3999C6.84173 9.19999 7.1999 9.55816 7.1999 9.99999V14.4C7.1999 14.8418 6.84173 15.2 6.3999 15.2H1.5999C1.15807 15.2 0.799902 14.8418 0.799902 14.4V9.99999ZM2.3999 10.8V13.6H5.5999V10.8H2.3999Z" fill="#1D2D3E"/>
</svg>
