<svg width="16" height="12" viewBox="0 0 16 12" fill="none" xmlns="http://www.w3.org/2000/svg">
<path fill-rule="evenodd" clip-rule="evenodd" d="M14.2298 0.729523C14.9158 0.914077 15.4562 1.4579 15.6395 2.14841C15.9727 3.4 15.9727 6.01133 15.9727 6.01133C15.9727 6.01133 15.9727 8.62266 15.6395 9.87425C15.4562 10.5648 14.9158 11.0859 14.2298 11.2705C12.9863 11.6058 7.99998 11.6058 7.99998 11.6058C7.99998 11.6058 3.0137 11.6058 1.77017 11.2705C1.08413 11.0859 0.543806 10.5648 0.360419 9.87425C0.0272217 8.62266 0.0272217 6.01133 0.0272217 6.01133C0.0272217 6.01133 0.0272217 3.4 0.360419 2.14841C0.543806 1.4579 1.08413 0.914107 1.77017 0.729523C3.0137 0.394165 7.99998 0.394165 7.99998 0.394165C7.99998 0.394165 12.9863 0.394165 14.2298 0.729523ZM5.99988 4V8.74178L10.1674 6.37095L5.99988 4Z" fill="#1A2733"/>
</svg>
