<svg viewBox="0 0 512 544.0012" xmlns="http://www.w3.org/2000/svg"><path fill="red" d="M256 32q53 0 99.5 20t81.5 55q35 35 55 81.5t20 99.5q0 53-20 99.5T437 469q-35 35-81.5 55T256 544q-53 0-99.5-20T75 469q-35-35-55-81.5T0 288q0-53 20-99.5T75 107q35-35 81.5-55T256 32zm45 256l74-73q9-11 9-23 0-13-9.5-22.5T352 160q-12 0-23 9l-73 74-73-74q-10-9-23-9t-22.5 9.5Q128 179 128 192q0 12 9 23l74 73-74 73q-9 10-9 23t9.5 22.5Q147 416 160 416t23-9l73-74 73 74q11 9 23 9 13 0 22.5-9.5T384 384q0-13-9-23l-74-73z"/></svg>