<svg viewBox="0 0 512 544.0012" xmlns="http://www.w3.org/2000/svg"><path fill="orange" d="M256 32q53 0 99.5 20t81.5 55q35 35 55 81.5t20 99.5q0 53-20 99.5T437 469q-35 35-81.5 55T256 544q-53 0-99.5-20T75 469q-35-35-55-81.5T0 288q0-53 20-99.5T75 107q35-35 81.5-55T256 32zm32 289q31-10 50.5-36.5T358 224q0-43-29.5-72.5T256 122q-21 0-39.5 8T184 150.5Q170 163 162 180t-8 35q0 20 9 30.5t23 10.5q13 0 22.5-9t9.5-23q0-16 11-27t27-11q16 0 27 11t11 27q0 16-11 27t-27 11q-14 0-23 9.5t-9 22.5v26q0 14 9 23t23 9q13 0 22-9t10-22zm-32 127q14 0 23-9t9-23q0-14-9-23t-23-9q-14 0-23 9t-9 23q0 14 9 23t23 9z"/></svg>